{
    "asset" : {
        "generator" : "Khronos glTF Blender I/O v3.2.40",
        "version" : "2.0"
    },
    "scene" : 0,
    "scenes" : [
        {
            "name" : "Scene",
            "nodes" : [
                2
            ]
        }
    ],
    "nodes" : [
        {
            "mesh" : 0,
            "name" : "Object_6"
        },
        {
            "children" : [
                0
            ],
            "name" : "main1.obj.cleaner.materialmerger.gles"
        },
        {
            "children" : [
                1
            ],
            "name" : "Sketchfab_model",
            "rotation" : [
                -0.7071068286895752,
                0,
                0,
                0.7071067094802856
            ]
        }
    ],
    "materials" : [
        {
            "doubleSided" : true,
            "name" : "material_0.002",
            "pbrMetallicRoughness" : {
                "metallicFactor" : 0,
                "roughnessFactor" : 0.6000000238418579
            }
        }
    ],
    "meshes" : [
        {
            "name" : "Object_4.002",
            "primitives" : [
                {
                    "attributes" : {
                        "POSITION" : 0,
                        "NORMAL" : 1
                    },
                    "indices" : 2,
                    "material" : 0
                }
            ]
        }
    ],
    "accessors" : [
        {
            "bufferView" : 0,
            "componentType" : 5126,
            "count" : 238021,
            "max" : [
                2.135143280029297,
                0.2949955463409424,
                1.8410778045654297
            ],
            "min" : [
                -2.1353347301483154,
                -1.2093278169631958,
                -5.4691877365112305
            ],
            "type" : "VEC3"
        },
        {
            "bufferView" : 1,
            "componentType" : 5126,
            "count" : 238021,
            "type" : "VEC3"
        },
        {
            "bufferView" : 2,
            "componentType" : 5125,
            "count" : 1426950,
            "type" : "SCALAR"
        }
    ],
    "bufferViews" : [
        {
            "buffer" : 0,
            "byteLength" : 2856252,
            "byteOffset" : 0
        },
        {
            "buffer" : 0,
            "byteLength" : 2856252,
            "byteOffset" : 2856252
        },
        {
            "buffer" : 0,
            "byteLength" : 5707800,
            "byteOffset" : 5712504
        }
    ],
    "buffers" : [
        {
            "byteLength" : 11420304,
            "uri" : "maleBodyFixed.bin"
        }
    ]
}
