{
	"asset":{
		"generator":"Khronos glTF Blender I/O v4.2.69",
		"version":"2.0"
	},
	"scene":0,
	"scenes":[
		{
			"name":"Scene",
			"nodes":[
				0
			]
		}
	],
	"nodes":[
		{
			"mesh":0,
			"name":"bunny",
			"rotation":[
				0.7071068286895752,
				0,
				0,
				0.7071068286895752
			],
			"scale":[
				21.754220962524414,
				21.754220962524414,
				21.754220962524414
			],
			"translation":[
				0,
				-0.7273427248001099,
				0
			]
		}
	],
	"meshes":[
		{
			"name":"bunny",
			"primitives":[
				{
					"attributes":{
						"POSITION":0,
						"NORMAL":1
					},
					"indices":2
				}
			]
		}
	],
	"accessors":[
		{
			"bufferView":0,
			"componentType":5126,
			"count":14900,
			"max":[
				0.06077880039811134,
				0.05871463939547539,
				-0.033309899270534515
			],
			"min":[
				-0.09438042342662811,
				-0.0616791695356369,
				-0.18699601292610168
			],
			"type":"VEC3"
		},
		{
			"bufferView":1,
			"componentType":5126,
			"count":14900,
			"type":"VEC3"
		},
		{
			"bufferView":2,
			"componentType":5123,
			"count":14904,
			"type":"SCALAR"
		}
	],
	"bufferViews":[
		{
			"buffer":0,
			"byteLength":178800,
			"byteOffset":0,
			"target":34962
		},
		{
			"buffer":0,
			"byteLength":178800,
			"byteOffset":178800,
			"target":34962
		},
		{
			"buffer":0,
			"byteLength":29808,
			"byteOffset":357600,
			"target":34963
		}
	],
	"buffers":[
		{
			"byteLength":387408,
			"uri":"bunny.bin"
		}
	]
}
