{
  "accessors": [
    {
      "bufferView": 1,
      "componentType": 5126,
      "count": 65532,
      "max": [
        0.23680368065834045,
        0.6227319240570068,
        0.461556077003479
      ],
      "min": [
        -0.23685243725776672,
        -0.7427374720573425,
        -0.9518975615501404
      ],
      "type": "VEC3"
    },
    {
      "bufferView": 1,
      "byteOffset": 786384,
      "componentType": 5126,
      "count": 65532,
      "max": [
        0.9999939799308777,
        0.9999996423721313,
        0.9999374151229858
      ],
      "min": [
        -0.999993622303009,
        -0.999953031539917,
        -0.9999980926513672
      ],
      "type": "VEC3"
    },
    {
      "bufferView": 0,
      "componentType": 5125,
      "count": 376761,
      "type": "SCALAR"
    },
    {
      "bufferView": 1,
      "byteOffset": 1572768,
      "componentType": 5126,
      "count": 65532,
      "max": [
        0.2138984203338623,
        0.7393507957458496,
        0.880859375
      ],
      "min": [
        -0.18061402440071106,
        -0.6273795366287231,
        -0.6678990125656128
      ],
      "type": "VEC3"
    },
    {
      "bufferView": 1,
      "byteOffset": 2359152,
      "componentType": 5126,
      "count": 65532,
      "max": [
        0.9999997615814209,
        1.0,
        0.9999951720237732
      ],
      "min": [
        -0.9999961853027344,
        -0.9998663663864136,
        -0.9999779462814331
      ],
      "type": "VEC3"
    },
    {
      "bufferView": 0,
      "byteOffset": 1507044,
      "componentType": 5125,
      "count": 369867,
      "type": "SCALAR"
    },
    {
      "bufferView": 1,
      "byteOffset": 3145536,
      "componentType": 5126,
      "count": 65534,
      "max": [
        0.2370547503232956,
        0.7389126420021057,
        0.9518989324569702
      ],
      "min": [
        -0.23697936534881592,
        -0.748475968837738,
        -0.9517208337783813
      ],
      "type": "VEC3"
    },
    {
      "bufferView": 1,
      "byteOffset": 3931944,
      "componentType": 5126,
      "count": 65534,
      "max": [
        0.9999976754188538,
        1.0,
        1.0
      ],
      "min": [
        -1.0,
        -1.0,
        -1.0
      ],
      "type": "VEC3"
    },
    {
      "bufferView": 0,
      "byteOffset": 2986512,
      "componentType": 5125,
      "count": 334023,
      "type": "SCALAR"
    },
    {
      "bufferView": 1,
      "byteOffset": 4718352,
      "componentType": 5126,
      "count": 7948,
      "max": [
        0.23292875289916992,
        0.7207527160644531,
        0.48121094703674316
      ],
      "min": [
        -0.23306362330913544,
        -0.7434213757514954,
        0.1378173828125
      ],
      "type": "VEC3"
    },
    {
      "bufferView": 1,
      "byteOffset": 4813728,
      "componentType": 5126,
      "count": 7948,
      "max": [
        0.999771773815155,
        1.0,
        0.9983697533607483
      ],
      "min": [
        -0.9999944567680359,
        -0.998673677444458,
        -0.9974250793457031
      ],
      "type": "VEC3"
    },
    {
      "bufferView": 0,
      "byteOffset": 4322604,
      "componentType": 5125,
      "count": 21861,
      "type": "SCALAR"
    }
  ],
  "asset": {
    "extras": {
      "author": "stephengam (https://sketchfab.com/stephengam)",
      "license": "SKETCHFAB Standard (https://sketchfab.com/licenses)",
      "source": "https://sketchfab.com/3d-models/crimson-rocking-horse-f2bfc0089b3a4906ba69afdfc362fbea",
      "title": "Crimson Rocking Horse"
    },
    "generator": "Sketchfab-16.85.0",
    "version": "2.0"
  },
  "bufferViews": [
    {
      "buffer": 0,
      "byteLength": 4410048,
      "name": "floatBufferViews",
      "target": 34963
    },
    {
      "buffer": 0,
      "byteLength": 4909104,
      "byteOffset": 4410048,
      "byteStride": 12,
      "name": "floatBufferViews",
      "target": 34962
    }
  ],
  "buffers": [
    {
      "byteLength": 9319152,
      "uri": "horseToy.bin"
    }
  ],
  "materials": [
    {
      "doubleSided": true,
      "name": "Scene_-_Root",
      "pbrMetallicRoughness": {
        "metallicFactor": 0.0,
        "roughnessFactor": 0.6
      }
    }
  ],
  "meshes": [
    {
      "name": "Object_0",
      "primitives": [
        {
          "attributes": {
            "NORMAL": 1,
            "POSITION": 0
          },
          "indices": 2,
          "material": 0,
          "mode": 4
        }
      ]
    },
    {
      "name": "Object_1",
      "primitives": [
        {
          "attributes": {
            "NORMAL": 4,
            "POSITION": 3
          },
          "indices": 5,
          "material": 0,
          "mode": 4
        }
      ]
    },
    {
      "name": "Object_2",
      "primitives": [
        {
          "attributes": {
            "NORMAL": 7,
            "POSITION": 6
          },
          "indices": 8,
          "material": 0,
          "mode": 4
        }
      ]
    },
    {
      "name": "Object_3",
      "primitives": [
        {
          "attributes": {
            "NORMAL": 10,
            "POSITION": 9
          },
          "indices": 11,
          "material": 0,
          "mode": 4
        }
      ]
    }
  ],
  "nodes": [
    {
      "children": [
        1
      ],
      "matrix": [
        2.220446049250313e-16,
        -3.828568672208042e-16,
        1.0,
        0.0,
        1.0,
        1.6081226229577296e-16,
        -2.2204460492503128e-16,
        0.0,
        -1.6081226229577292e-16,
        1.0,
        3.828568672208042e-16,
        0.0,
        0.0,
        0.0,
        0.0,
        1.0
      ],
      "name": "Sketchfab_model"
    },
    {
      "children": [
        2
      ],
      "name": "root"
    },
    {
      "children": [
        3
      ],
      "matrix": [
        1.0,
        0.0,
        0.0,
        0.0,
        0.0,
        2.220446049250313e-16,
        1.0,
        0.0,
        0.0,
        -1.0,
        2.220446049250313e-16,
        0.0,
        0.0,
        0.0,
        0.0,
        1.0
      ],
      "name": "GLTF_SceneRootNode"
    },
    {
      "children": [
        4,
        5,
        6,
        7
      ],
      "name": "Mesh1.0_0"
    },
    {
      "mesh": 0,
      "name": "Object_4"
    },
    {
      "mesh": 1,
      "name": "Object_5"
    },
    {
      "mesh": 2,
      "name": "Object_6"
    },
    {
      "mesh": 3,
      "name": "Object_7"
    }
  ],
  "scene": 0,
  "scenes": [
    {
      "name": "Sketchfab_Scene",
      "nodes": [
        0
      ]
    }
  ]
}
