{
    "asset" : {
        "generator" : "Khronos glTF Blender I/O v3.2.40",
        "version" : "2.0"
    },
    "scene" : 0,
    "scenes" : [
        {
            "name" : "Scene",
            "nodes" : [
                3
            ]
        }
    ],
    "nodes" : [
        {
            "mesh" : 0,
            "name" : "Mesh_0.001"
        },
        {
            "children" : [
                0
            ],
            "name" : "Loewe_C.obj.cleaner.materialmerger.gles"
        },
        {
            "children" : [
                1
            ],
            "name" : "RootNode (model correction matrix)",
            "rotation" : [
                -0.7057874202728271,
                -0.0004185347643215209,
                -0.0004169773601461202,
                0.7084234356880188
            ],
            "translation" : [
                0.014379501342773438,
                -13.070269584655762,
                -11.220318794250488
            ]
        },
        {
            "children" : [
                2
            ],
            "name" : "RootNode (gltf orientation matrix)",
            "rotation" : [
                -0.7071068286895752,
                0,
                0,
                0.7071067094802856
            ],
            "scale" : [
                0.42717915773391724,
                0.427179217338562,
                0.427179217338562
            ],
            "translation" : [
                0.5404196977615356,
                1.6744146347045898,
                -5.633790493011475
            ]
        }
    ],
    "materials" : [
        {
            "doubleSided" : true,
            "name" : "Loewe_O_Material_u1_v1.001",
            "pbrMetallicRoughness" : {
                "baseColorTexture" : {
                    "index" : 0
                },
                "metallicFactor" : 0.10181250423192978,
                "roughnessFactor" : 0.8794375061988831
            }
        }
    ],
    "meshes" : [
        {
            "name" : "Mesh_0.001",
            "primitives" : [
                {
                    "attributes" : {
                        "POSITION" : 0,
                        "NORMAL" : 1,
                        "TEXCOORD_0" : 2
                    },
                    "indices" : 3,
                    "material" : 0
                }
            ]
        }
    ],
    "textures" : [
        {
            "sampler" : 0,
            "source" : 0
        }
    ],
    "images" : [
        {
            "mimeType" : "image/png",
            "name" : "lowe",
            "uri" : "lowe.png"
        }
    ],
    "accessors" : [
        {
            "bufferView" : 0,
            "componentType" : 5126,
            "count" : 295979,
            "max" : [
                16.501562118530273,
                -0.7578141093254089,
                10.381745338439941
            ],
            "min" : [
                -18.556989669799805,
                -23.575868606567383,
                -8.484199523925781
            ],
            "type" : "VEC3"
        },
        {
            "bufferView" : 1,
            "componentType" : 5126,
            "count" : 295979,
            "type" : "VEC3"
        },
        {
            "bufferView" : 2,
            "componentType" : 5126,
            "count" : 295979,
            "type" : "VEC2"
        },
        {
            "bufferView" : 3,
            "componentType" : 5125,
            "count" : 1217040,
            "type" : "SCALAR"
        }
    ],
    "bufferViews" : [
        {
            "buffer" : 0,
            "byteLength" : 3551748,
            "byteOffset" : 0
        },
        {
            "buffer" : 0,
            "byteLength" : 3551748,
            "byteOffset" : 3551748
        },
        {
            "buffer" : 0,
            "byteLength" : 2367832,
            "byteOffset" : 7103496
        },
        {
            "buffer" : 0,
            "byteLength" : 4868160,
            "byteOffset" : 9471328
        }
    ],
    "samplers" : [
        {
            "magFilter" : 9729,
            "minFilter" : 9987
        }
    ],
    "buffers" : [
        {
            "byteLength" : 14339488,
            "uri" : "loweFixed.bin"
        }
    ]
}
