{
  "accessors": [
    {
      "bufferView": 2,
      "componentType": 5126,
      "count": 246,
      "max": [
        9.559700012207031,
        -2.7249999046325684,
        48.27289962768555
      ],
      "min": [
        -9.559700012207031,
        -8.14490032196045,
        41.12179946899414
      ],
      "type": "VEC3"
    },
    {
      "bufferView": 2,
      "byteOffset": 2952,
      "componentType": 5126,
      "count": 246,
      "max": [
        0.9562257528305054,
        0.9941979646682739,
        0.9977047443389893
      ],
      "min": [
        -0.9562257528305054,
        -0.9905920624732971,
        -0.9676138162612915
      ],
      "type": "VEC3"
    },
    {
      "bufferView": 3,
      "componentType": 5126,
      "count": 246,
      "max": [
        0.9994440078735352,
        0.9602054953575134,
        0.5989881157875061,
        1.0
      ],
      "min": [
        -0.9986021518707275,
        -0.9560138583183289,
        -0.5653060078620911,
        1.0
      ],
      "type": "VEC4"
    },
    {
      "bufferView": 1,
      "componentType": 5126,
      "count": 246,
      "max": [
        0.6962000131607056,
        0.9851999878883362
      ],
      "min": [
        0.6270999908447266,
        0.9089999794960022
      ],
      "type": "VEC2"
    },
    {
      "bufferView": 0,
      "componentType": 5125,
      "count": 1188,
      "type": "SCALAR"
    },
    {
      "bufferView": 2,
      "byteOffset": 5904,
      "componentType": 5126,
      "count": 567,
      "max": [
        26.398399353027344,
        18.920799255371094,
        54.67340087890625
      ],
      "min": [
        -21.890100479125977,
        -12.50059986114502,
        14.190299987792969
      ],
      "type": "VEC3"
    },
    {
      "bufferView": 2,
      "byteOffset": 12708,
      "componentType": 5126,
      "count": 567,
      "max": [
        0.9981553554534912,
        0.9915967583656311,
        0.9999973773956299
      ],
      "min": [
        -0.9851236939430237,
        -0.9997226595878601,
        -0.9973850250244141
      ],
      "type": "VEC3"
    },
    {
      "bufferView": 3,
      "byteOffset": 3936,
      "componentType": 5126,
      "count": 567,
      "max": [
        0.9994665384292603,
        0.988044023513794,
        0.8334906697273254,
        1.0
      ],
      "min": [
        -0.9996920824050903,
        -0.9958264231681824,
        -0.9948419332504272,
        1.0
      ],
      "type": "VEC4"
    },
    {
      "bufferView": 1,
      "byteOffset": 1968,
      "componentType": 5126,
      "count": 567,
      "max": [
        0.807699978351593,
        0.8083000183105469
      ],
      "min": [
        0.3555000126361847,
        0.3763999938964844
      ],
      "type": "VEC2"
    },
    {
      "bufferView": 0,
      "byteOffset": 4752,
      "componentType": 5125,
      "count": 2784,
      "type": "SCALAR"
    },
    {
      "bufferView": 2,
      "byteOffset": 19512,
      "componentType": 5126,
      "count": 396,
      "max": [
        12.083999633789063,
        14.004799842834473,
        46.60710144042969
      ],
      "min": [
        -12.14780044555664,
        -11.988200187683105,
        8.491999626159668
      ],
      "type": "VEC3"
    },
    {
      "bufferView": 2,
      "byteOffset": 24264,
      "componentType": 5126,
      "count": 396,
      "max": [
        0.9601914286613464,
        0.99998939037323,
        0.9994487762451172
      ],
      "min": [
        -0.9599286317825317,
        -0.9994082450866699,
        -0.9999988079071045
      ],
      "type": "VEC3"
    },
    {
      "bufferView": 3,
      "byteOffset": 13008,
      "componentType": 5126,
      "count": 396,
      "max": [
        0.9999973177909851,
        0.9869130849838257,
        0.9920742511749268,
        1.0
      ],
      "min": [
        -0.9976798295974731,
        -0.9620513916015625,
        -0.9959239363670349,
        -1.0
      ],
      "type": "VEC4"
    },
    {
      "bufferView": 1,
      "byteOffset": 6504,
      "componentType": 5126,
      "count": 396,
      "max": [
        0.8654999732971191,
        0.9842000007629395
      ],
      "min": [
        0.5121999979019165,
        0.16760000586509705
      ],
      "type": "VEC2"
    },
    {
      "bufferView": 0,
      "byteOffset": 15888,
      "componentType": 5125,
      "count": 1686,
      "type": "SCALAR"
    },
    {
      "bufferView": 2,
      "byteOffset": 29016,
      "componentType": 5126,
      "count": 8155,
      "max": [
        23.798099517822266,
        31.893299102783203,
        46.822601318359375
      ],
      "min": [
        -28.270099639892578,
        -1.1591999530792236,
        13.536399841308594
      ],
      "type": "VEC3"
    },
    {
      "bufferView": 2,
      "byteOffset": 126876,
      "componentType": 5126,
      "count": 8155,
      "max": [
        0.9997513890266418,
        0.9996626973152161,
        0.9972405433654785
      ],
      "min": [
        -0.9998812675476074,
        -0.9944723844528198,
        -0.9999147653579712
      ],
      "type": "VEC3"
    },
    {
      "bufferView": 3,
      "byteOffset": 19344,
      "componentType": 5126,
      "count": 8155,
      "max": [
        0.9989506006240845,
        0.9999966621398926,
        0.9999997019767761,
        1.0
      ],
      "min": [
        -0.9991468191146851,
        -0.9999992251396179,
        -0.9999071359634399,
        -1.0
      ],
      "type": "VEC4"
    },
    {
      "bufferView": 1,
      "byteOffset": 9672,
      "componentType": 5126,
      "count": 8155,
      "max": [
        0.9979000091552734,
        0.9990000128746033
      ],
      "min": [
        0.16760000586509705,
        0.026599999517202377
      ],
      "type": "VEC2"
    },
    {
      "bufferView": 0,
      "byteOffset": 22632,
      "componentType": 5125,
      "count": 40590,
      "type": "SCALAR"
    },
    {
      "bufferView": 2,
      "byteOffset": 224736,
      "componentType": 5126,
      "count": 4025,
      "max": [
        47.50469970703125,
        42.30039978027344,
        46.94839859008789
      ],
      "min": [
        -47.757301330566406,
        -42.1875,
        0.0
      ],
      "type": "VEC3"
    },
    {
      "bufferView": 2,
      "byteOffset": 273036,
      "componentType": 5126,
      "count": 4025,
      "max": [
        1.0,
        1.0,
        1.0
      ],
      "min": [
        -1.0,
        -1.0,
        -1.0
      ],
      "type": "VEC3"
    },
    {
      "bufferView": 3,
      "byteOffset": 149824,
      "componentType": 5126,
      "count": 4025,
      "max": [
        1.0,
        0.9998039603233337,
        0.9999350309371948,
        1.0
      ],
      "min": [
        -0.9982269406318665,
        -0.9999486207962036,
        -0.999836266040802,
        -1.0
      ],
      "type": "VEC4"
    },
    {
      "bufferView": 1,
      "byteOffset": 74912,
      "componentType": 5126,
      "count": 4025,
      "max": [
        0.9871000051498413,
        0.9994999766349792
      ],
      "min": [
        0.0005000000237487257,
        0.0005000000237487257
      ],
      "type": "VEC2"
    },
    {
      "bufferView": 0,
      "byteOffset": 184992,
      "componentType": 5125,
      "count": 8190,
      "type": "SCALAR"
    },
    {
      "bufferView": 2,
      "byteOffset": 321336,
      "componentType": 5126,
      "count": 755,
      "max": [
        -14.199199676513672,
        -3.3124001026153564,
        63.49980163574219
      ],
      "min": [
        -26.173900604248047,
        -31.672800064086914,
        27.155000686645508
      ],
      "type": "VEC3"
    },
    {
      "bufferView": 2,
      "byteOffset": 330396,
      "componentType": 5126,
      "count": 755,
      "max": [
        0.997015655040741,
        0.9703969955444336,
        0.9993598461151123
      ],
      "min": [
        -0.9984809160232544,
        -0.9924024939537048,
        -0.9936327934265137
      ],
      "type": "VEC3"
    },
    {
      "bufferView": 3,
      "byteOffset": 214224,
      "componentType": 5126,
      "count": 755,
      "max": [
        0.9828042387962341,
        0.9698300361633301,
        0.9910292029380798,
        1.0
      ],
      "min": [
        -0.9804714918136597,
        -0.9971761107444763,
        -0.9964278340339661,
        -1.0
      ],
      "type": "VEC4"
    },
    {
      "bufferView": 1,
      "byteOffset": 107112,
      "componentType": 5126,
      "count": 755,
      "max": [
        0.9846000075340271,
        0.9851999878883362
      ],
      "min": [
        0.0005000000237487257,
        0.0892999991774559
      ],
      "type": "VEC2"
    },
    {
      "bufferView": 0,
      "byteOffset": 217752,
      "componentType": 5125,
      "count": 2190,
      "type": "SCALAR"
    },
    {
      "bufferView": 2,
      "byteOffset": 339456,
      "componentType": 5126,
      "count": 1999,
      "max": [
        18.712099075317383,
        18.047800064086914,
        66.09420013427734
      ],
      "min": [
        -18.81719970703125,
        -13.143899917602539,
        34.23109817504883
      ],
      "type": "VEC3"
    },
    {
      "bufferView": 2,
      "byteOffset": 363444,
      "componentType": 5126,
      "count": 1999,
      "max": [
        0.9988866448402405,
        0.9988134503364563,
        0.9999788999557495
      ],
      "min": [
        -0.9988866448402405,
        -0.9991811513900757,
        -0.9998020529747009
      ],
      "type": "VEC3"
    },
    {
      "bufferView": 3,
      "byteOffset": 226304,
      "componentType": 5126,
      "count": 1999,
      "max": [
        0.9999997019767761,
        0.9994816184043884,
        0.9996500611305237,
        1.0
      ],
      "min": [
        -1.0,
        -0.9998708367347717,
        -0.9999409317970276,
        -1.0
      ],
      "type": "VEC4"
    },
    {
      "bufferView": 1,
      "byteOffset": 113152,
      "componentType": 5126,
      "count": 1999,
      "max": [
        0.9866999983787537,
        0.996399998664856
      ],
      "min": [
        0.29809999465942383,
        0.0005000000237487257
      ],
      "type": "VEC2"
    },
    {
      "bufferView": 0,
      "byteOffset": 226512,
      "componentType": 5125,
      "count": 6582,
      "type": "SCALAR"
    }
  ],
  "asset": {
    "extras": {
      "author": "loarziel_ (https://sketchfab.com/loarziel_)",
      "license": "CC-BY-NC-4.0 (http://creativecommons.org/licenses/by-nc/4.0/)",
      "source": "https://sketchfab.com/3d-models/pengu-3d-model-league-of-legends-fanart-60c297b241b74925b11e61404737fdad",
      "title": "Pengu [3D Model] - League Of Legends Fanart"
    },
    "generator": "Sketchfab-12.68.0",
    "version": "2.0"
  },
  "bufferViews": [
    {
      "buffer": 0,
      "byteLength": 252840,
      "name": "floatBufferViews",
      "target": 34963
    },
    {
      "buffer": 0,
      "byteLength": 129144,
      "byteOffset": 252840,
      "byteStride": 8,
      "name": "floatBufferViews",
      "target": 34962
    },
    {
      "buffer": 0,
      "byteLength": 387432,
      "byteOffset": 381984,
      "byteStride": 12,
      "name": "floatBufferViews",
      "target": 34962
    },
    {
      "buffer": 0,
      "byteLength": 258288,
      "byteOffset": 769416,
      "byteStride": 16,
      "name": "floatBufferViews",
      "target": 34962
    }
  ],
  "buffers": [
    {
      "byteLength": 1027704,
      "uri": "pengu.bin"
    }
  ],
  "images": [
    {
      "uri": "textures/capa_baseColor.png"
    },
    {
      "uri": "textures/capa_metallicRoughness.png"
    },
    {
      "uri": "textures/capa_normal.png"
    },
    {
      "uri": "textures/casco_baseColor.png"
    },
    {
      "uri": "textures/casco_metallicRoughness.png"
    },
    {
      "uri": "textures/casco_normal.png"
    },
    {
      "uri": "textures/cuerpo_baseColor.png"
    },
    {
      "uri": "textures/cuerpo_metallicRoughness.png"
    },
    {
      "uri": "textures/cuerpo_normal.png"
    },
    {
      "uri": "textures/espada_baseColor.png"
    },
    {
      "uri": "textures/espada_metallicRoughness.png"
    },
    {
      "uri": "textures/espada_normal.png"
    },
    {
      "uri": "textures/ojos_baseColor.png"
    },
    {
      "uri": "textures/ojos_metallicRoughness.png"
    },
    {
      "uri": "textures/ojos_normal.png"
    },
    {
      "uri": "textures/peana_baseColor.png"
    },
    {
      "uri": "textures/peana_metallicRoughness.png"
    },
    {
      "uri": "textures/peana_emissive.png"
    },
    {
      "uri": "textures/peana_normal.png"
    },
    {
      "uri": "textures/pico_patas_baseColor.png"
    },
    {
      "uri": "textures/pico_patas_metallicRoughness.png"
    },
    {
      "uri": "textures/pico_patas_normal.png"
    }
  ],
  "materials": [
    {
      "doubleSided": true,
      "name": "capa",
      "normalTexture": {
        "index": 2
      },
      "pbrMetallicRoughness": {
        "baseColorTexture": {
          "index": 0
        },
        "metallicRoughnessTexture": {
          "index": 1
        }
      }
    },
    {
      "doubleSided": true,
      "name": "casco",
      "normalTexture": {
        "index": 5
      },
      "pbrMetallicRoughness": {
        "baseColorTexture": {
          "index": 3
        },
        "metallicRoughnessTexture": {
          "index": 4
        }
      }
    },
    {
      "doubleSided": true,
      "name": "cuerpo",
      "normalTexture": {
        "index": 8
      },
      "pbrMetallicRoughness": {
        "baseColorTexture": {
          "index": 6
        },
        "metallicRoughnessTexture": {
          "index": 7
        }
      }
    },
    {
      "doubleSided": true,
      "name": "espada",
      "normalTexture": {
        "index": 11
      },
      "pbrMetallicRoughness": {
        "baseColorTexture": {
          "index": 9
        },
        "metallicRoughnessTexture": {
          "index": 10
        }
      }
    },
    {
      "doubleSided": true,
      "name": "ojos",
      "normalTexture": {
        "index": 14
      },
      "pbrMetallicRoughness": {
        "baseColorTexture": {
          "index": 12
        },
        "metallicRoughnessTexture": {
          "index": 13
        }
      }
    },
    {
      "doubleSided": true,
      "emissiveFactor": [
        0.08060323044031495,
        0.08060323044031495,
        0.08060323044031495
      ],
      "emissiveTexture": {
        "index": 17
      },
      "name": "peana",
      "normalTexture": {
        "index": 18
      },
      "pbrMetallicRoughness": {
        "baseColorTexture": {
          "index": 15
        },
        "metallicRoughnessTexture": {
          "index": 16
        }
      }
    },
    {
      "doubleSided": true,
      "name": "pico_patas",
      "normalTexture": {
        "index": 21
      },
      "pbrMetallicRoughness": {
        "baseColorTexture": {
          "index": 19
        },
        "metallicRoughnessTexture": {
          "index": 20
        }
      }
    }
  ],
  "meshes": [
    {
      "name": "Object_0",
      "primitives": [
        {
          "attributes": {
            "NORMAL": 1,
            "POSITION": 0,
            "TANGENT": 2,
            "TEXCOORD_0": 3
          },
          "indices": 4,
          "material": 4,
          "mode": 4
        }
      ]
    },
    {
      "name": "Object_1",
      "primitives": [
        {
          "attributes": {
            "NORMAL": 6,
            "POSITION": 5,
            "TANGENT": 7,
            "TEXCOORD_0": 8
          },
          "indices": 9,
          "material": 2,
          "mode": 4
        }
      ]
    },
    {
      "name": "Object_2",
      "primitives": [
        {
          "attributes": {
            "NORMAL": 11,
            "POSITION": 10,
            "TANGENT": 12,
            "TEXCOORD_0": 13
          },
          "indices": 14,
          "material": 6,
          "mode": 4
        }
      ]
    },
    {
      "name": "Object_3",
      "primitives": [
        {
          "attributes": {
            "NORMAL": 16,
            "POSITION": 15,
            "TANGENT": 17,
            "TEXCOORD_0": 18
          },
          "indices": 19,
          "material": 0,
          "mode": 4
        }
      ]
    },
    {
      "name": "Object_4",
      "primitives": [
        {
          "attributes": {
            "NORMAL": 21,
            "POSITION": 20,
            "TANGENT": 22,
            "TEXCOORD_0": 23
          },
          "indices": 24,
          "material": 5,
          "mode": 4
        }
      ]
    },
    {
      "name": "Object_5",
      "primitives": [
        {
          "attributes": {
            "NORMAL": 26,
            "POSITION": 25,
            "TANGENT": 27,
            "TEXCOORD_0": 28
          },
          "indices": 29,
          "material": 3,
          "mode": 4
        }
      ]
    },
    {
      "name": "Object_6",
      "primitives": [
        {
          "attributes": {
            "NORMAL": 31,
            "POSITION": 30,
            "TANGENT": 32,
            "TEXCOORD_0": 33
          },
          "indices": 34,
          "material": 1,
          "mode": 4
        }
      ]
    }
  ],
  "nodes": [
    {
      "children": [
        1
      ],
      "matrix": [
        1.0,
        0.0,
        0.0,
        0.0,
        0.0,
        2.220446049250313e-16,
        -1.0,
        0.0,
        0.0,
        1.0,
        2.220446049250313e-16,
        0.0,
        0.0,
        0.0,
        0.0,
        1.0
      ],
      "name": "Sketchfab_model"
    },
    {
      "children": [
        2,
        3,
        4,
        5,
        6,
        7,
        8
      ],
      "name": "Pengu_low_final.obj.cleaner.materialmerger.gles"
    },
    {
      "mesh": 0,
      "name": "Object_2"
    },
    {
      "mesh": 1,
      "name": "Object_3"
    },
    {
      "mesh": 2,
      "name": "Object_4"
    },
    {
      "mesh": 3,
      "name": "Object_5"
    },
    {
      "mesh": 4,
      "name": "Object_6"
    },
    {
      "mesh": 5,
      "name": "Object_7"
    },
    {
      "mesh": 6,
      "name": "Object_8"
    }
  ],
  "samplers": [
    {
      "magFilter": 9729,
      "minFilter": 9987,
      "wrapS": 10497,
      "wrapT": 10497
    }
  ],
  "scene": 0,
  "scenes": [
    {
      "name": "Sketchfab_Scene",
      "nodes": [
        0
      ]
    }
  ],
  "textures": [
    {
      "sampler": 0,
      "source": 0
    },
    {
      "sampler": 0,
      "source": 1
    },
    {
      "sampler": 0,
      "source": 2
    },
    {
      "sampler": 0,
      "source": 3
    },
    {
      "sampler": 0,
      "source": 4
    },
    {
      "sampler": 0,
      "source": 5
    },
    {
      "sampler": 0,
      "source": 6
    },
    {
      "sampler": 0,
      "source": 7
    },
    {
      "sampler": 0,
      "source": 8
    },
    {
      "sampler": 0,
      "source": 9
    },
    {
      "sampler": 0,
      "source": 10
    },
    {
      "sampler": 0,
      "source": 11
    },
    {
      "sampler": 0,
      "source": 12
    },
    {
      "sampler": 0,
      "source": 13
    },
    {
      "sampler": 0,
      "source": 14
    },
    {
      "sampler": 0,
      "source": 15
    },
    {
      "sampler": 0,
      "source": 16
    },
    {
      "sampler": 0,
      "source": 17
    },
    {
      "sampler": 0,
      "source": 18
    },
    {
      "sampler": 0,
      "source": 19
    },
    {
      "sampler": 0,
      "source": 20
    },
    {
      "sampler": 0,
      "source": 21
    }
  ]
}
