{
  "accessors": [
    {
      "bufferView": 2,
      "componentType": 5126,
      "count": 9322,
      "max": [
        0.1584150493144989,
        0.17020313441753387,
        0.4326893091201782
      ],
      "min": [
        -0.147944837808609,
        -0.11054600775241852,
        -0.00031755436793901026
      ],
      "type": "VEC3"
    },
    {
      "bufferView": 2,
      "byteOffset": 111864,
      "componentType": 5126,
      "count": 9322,
      "max": [
        0.9999493956565857,
        0.9998852014541626,
        1.0
      ],
      "min": [
        -0.9996777772903442,
        -0.9997276067733765,
        -1.0
      ],
      "type": "VEC3"
    },
    {
      "bufferView": 3,
      "componentType": 5126,
      "count": 9322,
      "max": [
        0.9998123645782471,
        0.9996069073677063,
        0.9999951720237732,
        1.0
      ],
      "min": [
        -0.9999966025352478,
        -0.9999963641166687,
        -0.9987401366233826,
        -1.0
      ],
      "type": "VEC4"
    },
    {
      "bufferView": 1,
      "componentType": 5126,
      "count": 9322,
      "max": [
        0.9956621527671814,
        0.9950465559959412
      ],
      "min": [
        0.00434792460873723,
        0.004344645421952009
      ],
      "type": "VEC2"
    },
    {
      "bufferView": 1,
      "byteOffset": 74576,
      "componentType": 5126,
      "count": 9322,
      "max": [
        0.9956621527671814,
        0.9950465559959412
      ],
      "min": [
        0.00434792460873723,
        0.004344645421952009
      ],
      "type": "VEC2"
    },
    {
      "bufferView": 0,
      "componentType": 5125,
      "count": 51444,
      "type": "SCALAR"
    }
  ],
  "asset": {
    "extras": {
      "author": "Prince Obrymec (https://sketchfab.com/prince-obrymec)",
      "license": "SKETCHFAB Standard (https://sketchfab.com/licenses)",
      "source": "https://sketchfab.com/3d-models/bull-head-a0b8f7eed4c64e47a03898956631d9ac",
      "title": "Bull Head"
    },
    "generator": "Sketchfab-16.95.0",
    "version": "2.0"
  },
  "bufferViews": [
    {
      "buffer": 0,
      "byteLength": 205776,
      "name": "floatBufferViews",
      "target": 34963
    },
    {
      "buffer": 0,
      "byteLength": 149152,
      "byteOffset": 205776,
      "byteStride": 8,
      "name": "floatBufferViews",
      "target": 34962
    },
    {
      "buffer": 0,
      "byteLength": 223728,
      "byteOffset": 354928,
      "byteStride": 12,
      "name": "floatBufferViews",
      "target": 34962
    },
    {
      "buffer": 0,
      "byteLength": 149152,
      "byteOffset": 578656,
      "byteStride": 16,
      "name": "floatBufferViews",
      "target": 34962
    }
  ],
  "buffers": [
    {
      "byteLength": 727808,
      "uri": "scene.bin"
    }
  ],
  "images": [
    {
      "uri": "textures/bull_head_baseColor.jpeg"
    },
    {
      "uri": "textures/bull_head_metallicRoughness.png"
    },
    {
      "uri": "textures/bull_head_normal.png"
    }
  ],
  "materials": [
    {
      "doubleSided": true,
      "name": "bull_head",
      "normalTexture": {
        "index": 2
      },
      "occlusionTexture": {
        "index": 1
      },
      "pbrMetallicRoughness": {
        "baseColorTexture": {
          "index": 0
        },
        "metallicRoughnessTexture": {
          "index": 1
        },
        "roughnessFactor": 0.5
      }
    }
  ],
  "meshes": [
    {
      "name": "bull_head_bull_head_0",
      "primitives": [
        {
          "attributes": {
            "NORMAL": 1,
            "POSITION": 0,
            "TANGENT": 2,
            "TEXCOORD_0": 3,
            "TEXCOORD_1": 4
          },
          "indices": 5,
          "material": 0,
          "mode": 4
        }
      ]
    }
  ],
  "nodes": [
    {
      "children": [
        1
      ],
      "matrix": [
        1.0,
        0.0,
        0.0,
        0.0,
        0.0,
        2.220446049250313e-16,
        -1.0,
        0.0,
        0.0,
        1.0,
        2.220446049250313e-16,
        0.0,
        0.0,
        0.0,
        0.0,
        1.0
      ],
      "name": "Sketchfab_model"
    },
    {
      "children": [
        2
      ],
      "matrix": [
        0.009999999776482582,
        0.0,
        0.0,
        0.0,
        0.0,
        0.0,
        0.009999999776482582,
        0.0,
        0.0,
        -0.009999999776482582,
        0.0,
        0.0,
        0.0,
        0.0,
        0.0,
        1.0
      ],
      "name": "4dc0478c8e11479f805836ad8b90e5b0.fbx"
    },
    {
      "children": [
        3
      ],
      "name": "RootNode"
    },
    {
      "children": [
        4
      ],
      "matrix": [
        100.0,
        0.0,
        0.0,
        0.0,
        0.0,
        -4.371139006309477e-06,
        -99.9999999999999,
        0.0,
        0.0,
        99.9999999999999,
        -4.371139006309477e-06,
        0.0,
        0.0,
        0.0,
        0.0,
        1.0
      ],
      "name": "bull_head"
    },
    {
      "mesh": 0,
      "name": "bull_head_bull_head_0"
    }
  ],
  "samplers": [
    {
      "magFilter": 9729,
      "minFilter": 9987,
      "wrapS": 10497,
      "wrapT": 10497
    }
  ],
  "scene": 0,
  "scenes": [
    {
      "name": "Sketchfab_Scene",
      "nodes": [
        0
      ]
    }
  ],
  "textures": [
    {
      "sampler": 0,
      "source": 0
    },
    {
      "sampler": 0,
      "source": 1
    },
    {
      "sampler": 0,
      "source": 2
    }
  ]
}
