{
  "accessors": [
    {
      "bufferView": 2,
      "componentType": 5126,
      "count": 48774,
      "max": [
        0.7809119820594788,
        1.004902958869934,
        1.2810330390930176
      ],
      "min": [
        -0.7929350137710571,
        -0.8199149966239929,
        0.00608400022611022
      ],
      "type": "VEC3"
    },
    {
      "bufferView": 2,
      "byteOffset": 585288,
      "componentType": 5126,
      "count": 48774,
      "max": [
        0.9999966621398926,
        0.9999985694885254,
        0.9999485015869141
      ],
      "min": [
        -0.9999744892120361,
        -0.9999357461929321,
        -0.996492862701416
      ],
      "type": "VEC3"
    },
    {
      "bufferView": 3,
      "componentType": 5126,
      "count": 48774,
      "max": [
        0.999904990196228,
        0.9996833801269531,
        0.9856399893760681,
        1.0
      ],
      "min": [
        -0.9998554587364197,
        -0.9998499155044556,
        -0.9999596476554871,
        -1.0
      ],
      "type": "VEC4"
    },
    {
      "bufferView": 1,
      "componentType": 5126,
      "count": 48774,
      "max": [
        0.9978029727935791,
        0.9977819919586182
      ],
      "min": [
        0.0023109999019652605,
        0.1677280068397522
      ],
      "type": "VEC2"
    },
    {
      "bufferView": 0,
      "componentType": 5125,
      "count": 267438,
      "type": "SCALAR"
    }
  ],
  "asset": {
    "extras": {
      "author": "Zacxophone (https://sketchfab.com/Zacxophone)",
      "license": "SKETCHFAB Standard (https://sketchfab.com/licenses)",
      "source": "https://sketchfab.com/3d-models/big-rock-e955a86f45234e68ac3338f7021f0da5",
      "title": "Big rock"
    },
    "generator": "Sketchfab-15.49.0",
    "version": "2.0"
  },
  "bufferViews": [
    {
      "buffer": 0,
      "byteLength": 1069752,
      "name": "floatBufferViews",
      "target": 34963
    },
    {
      "buffer": 0,
      "byteLength": 390192,
      "byteOffset": 1069752,
      "byteStride": 8,
      "name": "floatBufferViews",
      "target": 34962
    },
    {
      "buffer": 0,
      "byteLength": 1170576,
      "byteOffset": 1459944,
      "byteStride": 12,
      "name": "floatBufferViews",
      "target": 34962
    },
    {
      "buffer": 0,
      "byteLength": 780384,
      "byteOffset": 2630520,
      "byteStride": 16,
      "name": "floatBufferViews",
      "target": 34962
    }
  ],
  "buffers": [
    {
      "byteLength": 3410904,
      "uri": "scene.bin"
    }
  ],
  "images": [
    {
      "uri": "textures/main.002_baseColor.png"
    },
    {
      "uri": "textures/main.002_metallicRoughness.png"
    },
    {
      "uri": "textures/main.002_normal.png"
    }
  ],
  "materials": [
    {
      "doubleSided": true,
      "name": "main.002",
      "normalTexture": {
        "index": 2
      },
      "occlusionTexture": {
        "index": 1
      },
      "pbrMetallicRoughness": {
        "baseColorTexture": {
          "index": 0
        },
        "metallicFactor": 0.0,
        "metallicRoughnessTexture": {
          "index": 1
        }
      }
    }
  ],
  "meshes": [
    {
      "name": "Object_0",
      "primitives": [
        {
          "attributes": {
            "NORMAL": 1,
            "POSITION": 0,
            "TANGENT": 2,
            "TEXCOORD_0": 3
          },
          "indices": 4,
          "material": 0,
          "mode": 4
        }
      ]
    }
  ],
  "nodes": [
    {
      "children": [
        1
      ],
      "matrix": [
        1.0,
        0.0,
        0.0,
        0.0,
        0.0,
        2.220446049250313e-16,
        -1.0,
        0.0,
        0.0,
        1.0,
        2.220446049250313e-16,
        0.0,
        0.0,
        0.0,
        0.0,
        1.0
      ],
      "name": "Sketchfab_model"
    },
    {
      "children": [
        2
      ],
      "name": "rock.obj.cleaner.materialmerger.gles"
    },
    {
      "mesh": 0,
      "name": "Object_2"
    }
  ],
  "samplers": [
    {
      "magFilter": 9729,
      "minFilter": 9987,
      "wrapS": 10497,
      "wrapT": 10497
    }
  ],
  "scene": 0,
  "scenes": [
    {
      "name": "Sketchfab_Scene",
      "nodes": [
        0
      ]
    }
  ],
  "textures": [
    {
      "sampler": 0,
      "source": 0
    },
    {
      "sampler": 0,
      "source": 1
    },
    {
      "sampler": 0,
      "source": 2
    }
  ]
}
