{
  "accessors": [
    {
      "bufferView": 2,
      "componentType": 5126,
      "count": 9746,
      "max": [
        0.14886942505836487,
        0.14459645748138428,
        0.5150194764137268
      ],
      "min": [
        -0.12288019061088562,
        -0.1551171988248825,
        7.629208266735077e-05
      ],
      "type": "VEC3"
    },
    {
      "bufferView": 2,
      "byteOffset": 116952,
      "componentType": 5126,
      "count": 9746,
      "max": [
        0.9996763467788696,
        0.9999817609786987,
        0.9999997019767761
      ],
      "min": [
        -0.9999157190322876,
        -0.9998970627784729,
        -1.0
      ],
      "type": "VEC3"
    },
    {
      "bufferView": 3,
      "componentType": 5126,
      "count": 9746,
      "max": [
        0.9999212026596069,
        0.9999721050262451,
        0.9999589323997498,
        1.0
      ],
      "min": [
        -0.9999013543128967,
        -0.999730110168457,
        -1.0,
        -1.0
      ],
      "type": "VEC4"
    },
    {
      "bufferView": 1,
      "componentType": 5126,
      "count": 9746,
      "max": [
        0.9975011348724365,
        0.9837855100631714
      ],
      "min": [
        0.002502043731510639,
        0.0009995251893997192
      ],
      "type": "VEC2"
    },
    {
      "bufferView": 1,
      "byteOffset": 77968,
      "componentType": 5126,
      "count": 9746,
      "max": [
        0.9975011348724365,
        0.9837855100631714
      ],
      "min": [
        0.002502043731510639,
        0.0009995251893997192
      ],
      "type": "VEC2"
    },
    {
      "bufferView": 0,
      "componentType": 5125,
      "count": 52368,
      "type": "SCALAR"
    }
  ],
  "asset": {
    "extras": {
      "author": "Prince Obrymec (https://sketchfab.com/prince-obrymec)",
      "license": "SKETCHFAB Standard (https://sketchfab.com/licenses)",
      "source": "https://sketchfab.com/3d-models/marble-bust-543f15fd467b4d0ca28d2e40a0ba0ad1",
      "title": "Marble Bust"
    },
    "generator": "Sketchfab-16.99.0",
    "version": "2.0"
  },
  "bufferViews": [
    {
      "buffer": 0,
      "byteLength": 209472,
      "name": "floatBufferViews",
      "target": 34963
    },
    {
      "buffer": 0,
      "byteLength": 155936,
      "byteOffset": 209472,
      "byteStride": 8,
      "name": "floatBufferViews",
      "target": 34962
    },
    {
      "buffer": 0,
      "byteLength": 233904,
      "byteOffset": 365408,
      "byteStride": 12,
      "name": "floatBufferViews",
      "target": 34962
    },
    {
      "buffer": 0,
      "byteLength": 155936,
      "byteOffset": 599312,
      "byteStride": 16,
      "name": "floatBufferViews",
      "target": 34962
    }
  ],
  "buffers": [
    {
      "byteLength": 755248,
      "uri": "scene.bin"
    }
  ],
  "images": [
    {
      "uri": "textures/marble_bust_baseColor.jpeg"
    },
    {
      "uri": "textures/marble_bust_metallicRoughness.png"
    },
    {
      "uri": "textures/marble_bust_normal.png"
    }
  ],
  "materials": [
    {
      "doubleSided": true,
      "name": "marble_bust",
      "normalTexture": {
        "index": 2
      },
      "pbrMetallicRoughness": {
        "baseColorTexture": {
          "index": 0
        },
        "metallicRoughnessTexture": {
          "index": 1
        }
      }
    }
  ],
  "meshes": [
    {
      "name": "marble_bust_marble_bust_0",
      "primitives": [
        {
          "attributes": {
            "NORMAL": 1,
            "POSITION": 0,
            "TANGENT": 2,
            "TEXCOORD_0": 3,
            "TEXCOORD_1": 4
          },
          "indices": 5,
          "material": 0,
          "mode": 4
        }
      ]
    }
  ],
  "nodes": [
    {
      "children": [
        1
      ],
      "matrix": [
        1.0,
        0.0,
        0.0,
        0.0,
        0.0,
        2.220446049250313e-16,
        -1.0,
        0.0,
        0.0,
        1.0,
        2.220446049250313e-16,
        0.0,
        0.0,
        0.0,
        0.0,
        1.0
      ],
      "name": "Sketchfab_model"
    },
    {
      "children": [
        2
      ],
      "matrix": [
        0.009999999776482582,
        0.0,
        0.0,
        0.0,
        0.0,
        0.0,
        0.009999999776482582,
        0.0,
        0.0,
        -0.009999999776482582,
        0.0,
        0.0,
        0.0,
        0.0,
        0.0,
        1.0
      ],
      "name": "800a440c7b50433a83d20a85b0814228.fbx"
    },
    {
      "children": [
        3
      ],
      "name": "RootNode"
    },
    {
      "children": [
        4
      ],
      "matrix": [
        100.0,
        0.0,
        0.0,
        0.0,
        0.0,
        -4.371139006309477e-06,
        -99.9999999999999,
        0.0,
        0.0,
        99.9999999999999,
        -4.371139006309477e-06,
        0.0,
        0.0,
        0.0,
        0.0,
        1.0
      ],
      "name": "marble_bust"
    },
    {
      "mesh": 0,
      "name": "marble_bust_marble_bust_0"
    }
  ],
  "samplers": [
    {
      "magFilter": 9729,
      "minFilter": 9987,
      "wrapS": 10497,
      "wrapT": 10497
    }
  ],
  "scene": 0,
  "scenes": [
    {
      "name": "Sketchfab_Scene",
      "nodes": [
        0
      ]
    }
  ],
  "textures": [
    {
      "sampler": 0,
      "source": 0
    },
    {
      "sampler": 0,
      "source": 1
    },
    {
      "sampler": 0,
      "source": 2
    }
  ]
}
